{
  "source": "C:\\Users\\Peter\\Desktop\\stuff\\MIUN\\quantitative_research\\video_compression\\videos\\BVI-HD\\BVI-HD_CDVL_videos\\ORIG\\Lightreef_1920x1080_30fps.mp4",
  "output": "C:\\Users\\Peter\\Desktop\\stuff\\MIUN\\quantitative_research\\video_compression\\compressed_videos\\BVI-HD\\vp9\\3\\Lightreef_1920x1080_30fps_vp9.webm",
  "codec": "vp9",
  "ok": "Input #0, mov,mp4,m4a,3gp,3g2,mj2, from 'C:\\Users\\Peter\\Desktop\\stuff\\MIUN\\quantitative_research\\video_compression\\videos\\BVI-HD\\BVI-HD_CDVL_videos\\ORIG\\Lightreef_1920x1080_30fps.mp4':\n  Metadata:\n    major_brand     : isom\n    minor_version   : 512\n    compatible_brands: isomiso2avc1mp41\n    encoder         : Lavf54.28.101\n  Duration: 00:00:05.00, start: 0.000000, bitrate: 361719 kb/s\n  Stream #0:0[0x1](und): Video: h264 (High 4:4:4 Predictive) (avc1 / 0x31637661), yuv420p(progressive), 1920x1080, 361715 kb/s, 30 fps, 30 tbr, 30 tbn (default)\n    Metadata:\n      handler_name    : VideoHandler\n      vendor_id       : [0][0][0][0]\n[out#0/webm @ 000001e6a82e9700] Codec AVOption b:a (set bitrate (in bits/s)) has not been used for any stream. The most likely reason is either wrong type (e.g. a video option with no video streams) or that it is a private option of some decoder which was not actually used for any stream.\nStream mapping:\n  Stream #0:0 -> #0:0 (h264 (native) -> vp9 (libvpx-vp9))\nPress [q] to stop, [?] for help\n[libvpx-vp9 @ 000001e6a8ef0440] v1.15.2-100-g40561f514\nOutput #0, webm, to 'C:\\Users\\Peter\\Desktop\\stuff\\MIUN\\quantitative_research\\video_compression\\compressed_videos\\BVI-HD\\vp9\\3\\Lightreef_1920x1080_30fps_vp9.webm':\n  Metadata:\n    major_brand     : isom\n    minor_version   : 512\n    compatible_brands: isomiso2avc1mp41\n    encoder         : Lavf62.3.100\n  Stream #0:0(und): Video: vp9, yuv420p(tv, progressive), 1920x1080, q=2-31, 3000 kb/s, 30 fps, 1k tbn (default)\n    Metadata:\n      encoder         : Lavc62.11.100 libvpx-vp9\n      handler_name    : VideoHandler\n      vendor_id       : [0][0][0][0]\n    Side data:\n      cpb: bitrate max/min/avg: 0/0/0 buffer size: 3000000 vbv_delay: N/A\nframe=    0 fps=0.0 q=0.0 size=       0KiB time=N/A bitrate=N/A speed=N/A elapsed=0:00:00.51    \nframe=    0 fps=0.0 q=0.0 size=       0KiB time=N/A bitrate=N/A speed=N/A elapsed=0:00:01.12    \nframe=    3 fps=1.8 q=48.0 size=       1KiB time=00:00:00.10 bitrate=  50.7kbits/s speed=0.0585x elapsed=0:00:01.70    \nframe=    6 fps=2.6 q=54.0 size=       1KiB time=00:00:00.20 bitrate=  25.4kbits/s speed=0.0871x elapsed=0:00:02.29    \nframe=    8 fps=2.7 q=54.0 size=       1KiB time=00:00:00.26 bitrate=  19.0kbits/s speed=0.0916x elapsed=0:00:02.91    \nframe=   10 fps=2.9 q=53.0 size=       1KiB time=00:00:00.33 bitrate=  15.2kbits/s speed=0.0965x elapsed=0:00:03.45    \nframe=   11 fps=2.7 q=36.0 size=       1KiB time=00:00:00.36 bitrate=  13.8kbits/s speed=0.0902x elapsed=0:00:04.06    \nframe=   13 fps=2.8 q=51.0 size=       1KiB time=00:00:00.43 bitrate=  11.7kbits/s speed=0.0926x elapsed=0:00:04.68    \nframe=   15 fps=2.8 q=51.0 size=       1KiB time=00:00:00.50 bitrate=  10.1kbits/s speed=0.0945x elapsed=0:00:05.29    \nframe=   17 fps=2.9 q=52.0 size=       1KiB time=00:00:00.56 bitrate=   9.0kbits/s speed=0.0966x elapsed=0:00:05.86    \nframe=   20 fps=3.1 q=52.0 size=       1KiB time=00:00:00.66 bitrate=   7.6kbits/s speed=0.104x elapsed=0:00:06.40    \nframe=   22 fps=3.2 q=52.0 size=       1KiB time=00:00:00.73 bitrate=   6.9kbits/s speed=0.105x elapsed=0:00:06.96    \nframe=   25 fps=3.3 q=51.0 size=       1KiB time=00:00:00.83 bitrate=   6.1kbits/s speed=0.111x elapsed=0:00:07.51    \nframe=   27 fps=3.4 q=51.0 size=       1KiB time=00:00:00.90 bitrate=   5.6kbits/s speed=0.112x elapsed=0:00:08.05    \nframe=   29 fps=3.4 q=52.0 size=       1KiB time=00:00:00.96 bitrate=   5.2kbits/s speed=0.113x elapsed=0:00:08.57    \nframe=   30 fps=3.3 q=52.0 size=       1KiB time=00:00:01.00 bitrate=   5.1kbits/s speed=0.109x elapsed=0:00:09.13    \nframe=   32 fps=3.3 q=52.0 size=       1KiB time=00:00:01.06 bitrate=   4.8kbits/s speed=0.11x elapsed=0:00:09.66    \nframe=   34 fps=3.3 q=51.0 size=       1KiB time=00:00:01.13 bitrate=   4.5kbits/s speed=0.111x elapsed=0:00:10.20    \nframe=   36 fps=3.3 q=51.0 size=       1KiB time=00:00:01.20 bitrate=   4.2kbits/s speed=0.112x elapsed=0:00:10.75    \nframe=   38 fps=3.3 q=51.0 size=       1KiB time=00:00:01.26 bitrate=   4.0kbits/s speed=0.111x elapsed=0:00:11.38    \nframe=   40 fps=3.4 q=52.0 size=       1KiB time=00:00:01.33 bitrate=   3.8kbits/s speed=0.112x elapsed=0:00:11.91    \nframe=   42 fps=3.4 q=49.0 size=       1KiB time=00:00:01.40 bitrate=   3.6kbits/s speed=0.112x elapsed=0:00:12.45    \nframe=   43 fps=3.3 q=47.0 size=       1KiB time=00:00:01.43 bitrate=   3.5kbits/s speed=0.11x elapsed=0:00:13.00    \nframe=   46 fps=3.4 q=50.0 size=       1KiB time=00:00:01.53 bitrate=   3.3kbits/s speed=0.113x elapsed=0:00:13.53    \nframe=   48 fps=3.4 q=50.0 size=       1KiB time=00:00:01.60 bitrate=   3.2kbits/s speed=0.114x elapsed=0:00:14.07    \nframe=   49 fps=3.3 q=51.0 size=       1KiB time=00:00:01.63 bitrate=   3.1kbits/s speed=0.111x elapsed=0:00:14.64    \nframe=   51 fps=3.4 q=43.0 size=       1KiB time=00:00:01.66 bitrate=   3.0kbits/s speed=0.11x elapsed=0:00:15.18    \nframe=   53 fps=3.4 q=50.0 size=       1KiB time=00:00:01.73 bitrate=   2.9kbits/s speed=0.11x elapsed=0:00:15.74    \nframe=   55 fps=3.4 q=51.0 size=       1KiB time=00:00:01.83 bitrate=   2.8kbits/s speed=0.113x elapsed=0:00:16.29    \nframe=   56 fps=3.3 q=51.0 size=       1KiB time=00:00:01.86 bitrate=   2.7kbits/s speed=0.111x elapsed=0:00:16.89    \nframe=   58 fps=3.3 q=49.0 size=       1KiB time=00:00:01.93 bitrate=   2.6kbits/s speed=0.11x elapsed=0:00:17.50    \nframe=   60 fps=3.3 q=49.0 size=       1KiB time=00:00:02.00 bitrate=   2.5kbits/s speed=0.11x elapsed=0:00:18.10    \nframe=   62 fps=3.3 q=50.0 size=       1KiB time=00:00:02.06 bitrate=   2.5kbits/s speed=0.111x elapsed=0:00:18.64    \nframe=   64 fps=3.3 q=50.0 size=       1KiB time=00:00:02.13 bitrate=   2.4kbits/s speed=0.111x elapsed=0:00:19.21    \nframe=   66 fps=3.3 q=52.0 size=       1KiB time=00:00:02.20 bitrate=   2.3kbits/s speed=0.111x elapsed=0:00:19.78    \nframe=   68 fps=3.3 q=54.0 size=       1KiB time=00:00:02.26 bitrate=   2.2kbits/s speed=0.111x elapsed=0:00:20.36    \nframe=   70 fps=3.3 q=52.0 size=       1KiB time=00:00:02.33 bitrate=   2.2kbits/s speed=0.112x elapsed=0:00:20.91    \nframe=   72 fps=3.4 q=53.0 size=       1KiB time=00:00:02.40 bitrate=   2.1kbits/s speed=0.112x elapsed=0:00:21.45    \nframe=   75 fps=3.4 q=51.0 size=       1KiB time=00:00:02.46 bitrate=   2.1kbits/s speed=0.112x elapsed=0:00:22.02    \nframe=   76 fps=3.4 q=52.0 size=       1KiB time=00:00:02.53 bitrate=   2.0kbits/s speed=0.112x elapsed=0:00:22.59    \nframe=   78 fps=3.4 q=52.0 size=       1KiB time=00:00:02.60 bitrate=   2.0kbits/s speed=0.113x elapsed=0:00:23.10    \nframe=   81 fps=3.4 q=50.0 size=       1KiB time=00:00:02.70 bitrate=   1.9kbits/s speed=0.114x elapsed=0:00:23.63    \nframe=   83 fps=3.4 q=51.0 size=       1KiB time=00:00:02.76 bitrate=   1.8kbits/s speed=0.114x elapsed=0:00:24.19    \nframe=   85 fps=3.4 q=52.0 size=       1KiB time=00:00:02.83 bitrate=   1.8kbits/s speed=0.114x elapsed=0:00:24.79    \nframe=   87 fps=3.4 q=53.0 size=       1KiB time=00:00:02.90 bitrate=   1.7kbits/s speed=0.114x elapsed=0:00:25.34    \nframe=   88 fps=3.4 q=53.0 size=       1KiB time=00:00:02.93 bitrate=   1.7kbits/s speed=0.113x elapsed=0:00:25.86    \nframe=   90 fps=3.4 q=56.0 size=       1KiB time=00:00:03.00 bitrate=   1.7kbits/s speed=0.114x elapsed=0:00:26.40    \nframe=   92 fps=3.4 q=54.0 size=       1KiB time=00:00:03.06 bitrate=   1.7kbits/s speed=0.114x elapsed=0:00:26.95    \nframe=   94 fps=3.4 q=53.0 size=       1KiB time=00:00:03.13 bitrate=   1.6kbits/s speed=0.114x elapsed=0:00:27.50    \nframe=   97 fps=3.5 q=52.0 size=       1KiB time=00:00:03.23 bitrate=   1.6kbits/s speed=0.115x elapsed=0:00:28.08    \nframe=   99 fps=3.5 q=52.0 size=       1KiB time=00:00:03.30 bitrate=   1.5kbits/s speed=0.115x elapsed=0:00:28.60    \nframe=  102 fps=3.5 q=53.0 size=       1KiB time=00:00:03.40 bitrate=   1.5kbits/s speed=0.117x elapsed=0:00:29.12    \nframe=  104 fps=3.5 q=53.0 size=       1KiB time=00:00:03.46 bitrate=   1.5kbits/s speed=0.117x elapsed=0:00:29.63    \nframe=  106 fps=3.5 q=54.0 size=       1KiB time=00:00:03.53 bitrate=   1.4kbits/s speed=0.117x elapsed=0:00:30.16    \nframe=  109 fps=3.5 q=52.0 size=       1KiB time=00:00:03.63 bitrate=   1.4kbits/s speed=0.118x elapsed=0:00:30.71    \nframe=  111 fps=3.5 q=53.0 size=       1KiB time=00:00:03.70 bitrate=   1.4kbits/s speed=0.118x elapsed=0:00:31.27    \nframe=  113 fps=3.6 q=44.0 size=       1KiB time=00:00:03.76 bitrate=   1.3kbits/s speed=0.118x elapsed=0:00:31.80    \nframe=  115 fps=3.6 q=52.0 size=       1KiB time=00:00:03.83 bitrate=   1.3kbits/s speed=0.118x elapsed=0:00:32.38    \nframe=  117 fps=3.5 q=53.0 size=       1KiB time=00:00:03.90 bitrate=   1.3kbits/s speed=0.118x elapsed=0:00:33.05    \nframe=  118 fps=3.5 q=52.0 size=       1KiB time=00:00:03.93 bitrate=   1.3kbits/s speed=0.117x elapsed=0:00:33.67    \nframe=  120 fps=3.5 q=52.0 size=       1KiB time=00:00:04.00 bitrate=   1.3kbits/s speed=0.117x elapsed=0:00:34.27    \nframe=  122 fps=3.5 q=50.0 size=       1KiB time=00:00:04.06 bitrate=   1.2kbits/s speed=0.117x elapsed=0:00:34.80    \nframe=  124 fps=3.5 q=51.0 size=       1KiB time=00:00:04.13 bitrate=   1.2kbits/s speed=0.117x elapsed=0:00:35.34    \nframe=  126 fps=3.5 q=51.0 size=       1KiB time=00:00:04.20 bitrate=   1.2kbits/s speed=0.117x elapsed=0:00:35.87    \nframe=  126 fps=3.5 q=51.0 size=       1KiB time=00:00:04.20 bitrate=   1.2kbits/s speed=0.115x elapsed=0:00:36.44    \nframe=  126 fps=3.4 q=51.0 size=       1KiB time=00:00:04.20 bitrate=   1.2kbits/s speed=0.114x elapsed=0:00:36.99    \nframe=  126 fps=3.4 q=51.0 size=       1KiB time=00:00:04.20 bitrate=   1.2kbits/s speed=0.112x elapsed=0:00:37.55    \nframe=  126 fps=3.3 q=51.0 size=       1KiB time=00:00:04.20 bitrate=   1.2kbits/s speed=0.11x elapsed=0:00:38.09    \nframe=  126 fps=3.3 q=51.0 size=       1KiB time=00:00:04.20 bitrate=   1.2kbits/s speed=0.109x elapsed=0:00:38.68    \nframe=  126 fps=3.2 q=51.0 size=       1KiB time=00:00:04.20 bitrate=   1.2kbits/s speed=0.107x elapsed=0:00:39.21    \nframe=  126 fps=3.2 q=51.0 size=       1KiB time=00:00:04.20 bitrate=   1.2kbits/s speed=0.106x elapsed=0:00:39.76    \nframe=  126 fps=3.1 q=51.0 size=       1KiB time=00:00:04.20 bitrate=   1.2kbits/s speed=0.104x elapsed=0:00:40.31    \nframe=  126 fps=3.1 q=51.0 size=       1KiB time=00:00:04.20 bitrate=   1.2kbits/s speed=0.103x elapsed=0:00:40.85    \n[out#0/webm @ 000001e6a82e9700] video:2349KiB audio:0KiB subtitle:0KiB other streams:0KiB global headers:0KiB muxing overhead: 0.073403%\nframe=  150 fps=3.7 q=55.0 Lsize=    2351KiB time=00:00:05.00 bitrate=3852.2kbits/s speed=0.122x elapsed=0:00:40.93    \n",
  "seconds": 41.245214223861694,
  "probe_out": {}
}